Source: Lions.for.Lambs.2007.Blu-ray.720p.x264.DD51-MySiLU 

Subs: Bulgarian, Croatian, Czech, Danish, Dutch, English, Greek, Hebrew, Indonesian, Persian, Polish, Servian, Slovenian, Swedish and Vietnamese.

Sample and Screens included.

General
Complete name                    : Lions for Lambs-720p MP4 AAC BRRip 2007-CC.mp4
Format                           : MPEG-4
Format profile                   : Base Media
Codec ID                         : isom
File size                        : 1.82 GiB
Duration                         : 1h 31mn
Overall bit rate                 : 2 846 Kbps
Encoded date                     : UTC 2012-03-23 08:17:37

Video
ID                               : 1
Format                           : AVC
Format/Info                      : Advanced Video Codec
Format profile                   : High@L3.1
Format settings, CABAC           : Yes
Format settings, ReFrames        : 5 frames
Codec ID                         : avc1
Codec ID/Info                    : Advanced Video Coding
Duration                         : 1h 31mn
Bit rate mode                    : Variable
Bit rate                         : 2 458 Kbps
Nominal bit rate                 : 2 553 Kbps
Maximum bit rate                 : 19.7 Mbps
Width                            : 1 280 pixels
Height                           : 528 pixels
Display aspect ratio             : 2.40:1
Frame rate mode                  : Variable
Frame rate                       : 23.976 fps
Minimum frame rate               : 19.048 fps
Maximum frame rate               : 24.390 fps
Resolution                       : 24 bits
Colorimetry                      : 4:2:0
Scan type                        : Progressive
Bits/(Pixel*Frame)               : 0.152
Stream size                      : 1.57 GiB (86%)
Writing library                  : x264 core 112


Audio
ID                               : 2
Format                           : AAC
Format/Info                      : Advanced Audio Codec
Format version                   : Version 4
Format profile                   : LC
Format settings, SBR             : No
Codec ID                         : 40
Duration                         : 1h 31mn
Bit rate mode                    : Variable
Bit rate                         : 384 Kbps
Maximum bit rate                 : 656 Kbps
Channel(s)                       : 6 channels
Channel positions                : Front: L C R, Rear: L R, LFE
Sampling rate                    : 48.0 KHz
Resolution                       : 16 bits
Stream size                      : 251 MiB (13%)
Language                         : English